<svg width="25" height="30" viewBox="0 0 25 30" fill="none" xmlns="http://www.w3.org/2000/svg">
<path d="M7.20401 17.4388C6.12568 16.6928 5.2149 15.6721 4.58849 14.4157C3.44044 12.1131 3.49939 9.52392 4.52469 7.36743" stroke="#F2C94C" stroke-width="2"/>
<path d="M13.4762 2.90533C11.7764 2.55731 9.95201 2.75423 8.27886 3.58843C6.60572 4.42263 5.35048 5.76116 4.60547 7.32812" stroke="#DA0000" stroke-width="2"/>
<path d="M19.9031 11.1072C19.9563 9.79709 19.6892 8.45542 19.0628 7.19904C17.9148 4.89641 15.8115 3.38531 13.4722 2.90634" stroke="#39AE2E" stroke-width="2"/>
<path d="M19.9212 11.2334C19.8061 14.0692 18.1907 16.7573 15.4713 18.1131C12.7519 19.469 9.63292 19.1414 7.29889 17.5266" stroke="#2E81FF" stroke-width="2"/>
<path d="M17 19L23.3282 28.7445" stroke="#2E81FF" stroke-width="2"/>
</svg>
