<svg width="16" height="23" viewBox="0 0 16 23" fill="none" xmlns="http://www.w3.org/2000/svg">
<path d="M13.3 10C13.3 13 10.76 15.1 8 15.1C5.24 15.1 2.7 13 2.7 10H1C1 13.41 3.72 16.23 7 16.72V20H9V16.72C12.28 16.24 15 13.42 15 10H13.3Z" fill="url(#paint0_linear)"/>
<path d="M7 23V20H9V23H7Z" fill="#39AE2E"/>
<path d="M8 14C10.2133 14 11.9867 12.4367 11.9867 10.5L12 3.5C12 1.56333 10.2133 0 8 0C5.78667 0 4 1.56333 4 3.5V10.5C4 12.4367 5.78667 14 8 14Z" fill="#2E81FF"/>
<defs>
<linearGradient id="paint0_linear" x1="5" y1="14.3333" x2="3.66667" y2="13.6667" gradientUnits="userSpaceOnUse">
<stop stop-color="#DA0000"/>
<stop offset="1" stop-color="#FF7A00"/>
</linearGradient>
</defs>
</svg>
