<svg width="66" height="77" viewBox="0 0 66 77" fill="none" xmlns="http://www.w3.org/2000/svg">
<path d="M1 74V3C1 1.89543 1.89543 1 3 1H62.75C63.8546 1 64.75 1.89543 64.75 3V74C64.75 75.1046 63.8546 76 62.75 76H3C1.89543 76 1 75.1046 1 74Z" stroke="#99999F"/>
<path d="M6.58203 12.2493H32.832" stroke="#99999F" stroke-width="1.5"/>
<path d="M40.3633 36.625V10.375H59.1133V36.625H40.3633Z" stroke="#99999F"/>
<path d="M6.88203 49.45V38.8H36.282V49.45H6.88203Z" stroke="#99999F" stroke-width="0.6"/>
<path d="M6.58203 53.5H59.0821M59.0821 61H6.58203M6.58203 68.5H59.0821M6.58203 19.75H32.832M6.58203 27.25H32.832M6.58203 34.75H32.832" stroke="#99999F"/>
</svg>
